<?xml version="1.0" encoding="iso-8859-1"?>
<!-- Generator: Adobe Illustrator 19.0.0, SVG Export Plug-In . SVG Version: 6.00 Build 0)  -->
<svg version="1.1" id="Layer_1" xmlns="http://www.w3.org/2000/svg" xmlns:xlink="http://www.w3.org/1999/xlink" x="0px" y="0px"
	 viewBox="0 0 512 512" fill="#5f1f64" xml:space="preserve" width="100%" height="100%">
<g>
	<g>
		<g>
			<path d="M266.667,128H53.333C23.936,128,0,151.936,0,181.333v128c0,29.397,23.936,53.333,53.333,53.333h6.528l-16.64,49.963
				c-1.472,4.437,0.085,9.301,3.883,12.032c1.856,1.344,4.053,2.005,6.229,2.005c2.24,0,4.501-0.704,6.4-2.133l82.496-61.867
				h124.437c29.397,0,53.333-23.936,53.333-53.333v-128C320,151.936,296.064,128,266.667,128z"/>
			<path d="M458.667,85.333h-192C260.779,85.333,256,90.112,256,96s4.779,10.667,10.667,10.667
				c41.173,0,74.667,33.493,74.667,74.667v128c0,5.888,4.779,10.667,10.667,10.667h17.771l82.496,61.867
				c1.899,1.429,4.139,2.133,6.4,2.133c0.149-0.021,0.277,0,0.427,0c5.888,0,10.667-4.779,10.667-10.667
				c0-2.219-0.683-4.309-1.856-6.016L452.139,320h6.528C488.064,320,512,296.064,512,266.667v-128
				C512,109.269,488.064,85.333,458.667,85.333z"/>
		</g>
	</g>
</g>
<g>
</g>
<g>
</g>
<g>
</g>
<g>
</g>
<g>
</g>
<g>
</g>
<g>
</g>
<g>
</g>
<g>
</g>
<g>
</g>
<g>
</g>
<g>
</g>
<g>
</g>
<g>
</g>
<g>
</g>
</svg>
